<svg width="38" height="32" viewBox="0 0 38 32" fill="none" xmlns="http://www.w3.org/2000/svg">
<ellipse cx="18.3496" cy="3.73496" rx="3.77639" ry="3.73496" fill="#D9D9D9"/>
<rect x="4" y="22.3494" width="28.6995" height="5.07935" rx="2.53968" fill="#D9D9D9"/>
<path fill-rule="evenodd" clip-rule="evenodd" d="M18.3598 2.86597C12.6042 2.86597 7.93848 7.53174 7.93848 13.2872V27.4284H28.781V13.2872C28.781 7.53173 24.1153 2.86597 18.3598 2.86597Z" fill="#D9D9D9"/>
<path d="M31.4599 23.4613C31.4599 25.2335 30.2631 25.397 28.6793 25.397C27.0955 25.397 25.8115 23.9603 25.8115 22.1881C25.8115 20.4158 26.9945 19.3015 28.5783 19.3015C29.2294 22.4986 32.0971 22.1881 31.4599 23.4613Z" fill="#D9D9D9"/>
<path d="M5.23935 23.4613C5.23935 25.2335 6.43615 25.397 8.01996 25.397C9.60377 25.397 10.8877 23.9603 10.8877 22.1881C10.8877 20.4158 9.70471 19.3015 8.1209 19.3015C7.46981 22.4986 4.60207 22.1881 5.23935 23.4613Z" fill="#D9D9D9"/>
<path fill-rule="evenodd" clip-rule="evenodd" d="M22.9417 28.1904H14.3315C14.3316 30.2944 16.259 31.9999 18.6366 31.9999C21.0142 31.9999 22.9416 30.2944 22.9417 28.1904ZM22.5836 26.6666H14.6897C15.354 25.321 16.8712 24.3806 18.6366 24.3806C20.4021 24.3806 21.9193 25.321 22.5836 26.6666Z" fill="#D9D9D9"/>
</svg>
