<svg width="38" height="33" viewBox="0 0 38 33" fill="none" xmlns="http://www.w3.org/2000/svg">
<path fill-rule="evenodd" clip-rule="evenodd" d="M8 0C3.58172 0 0 3.58173 0 8.00001V24.355C0 28.7733 3.58173 32.355 8.00001 32.355H13.8208C18.2391 32.355 21.8208 28.7733 21.8208 24.355V18.0586H35.3648C36.196 18.0586 36.8697 17.3848 36.8697 16.5537C36.8697 15.7226 36.196 15.0488 35.3648 15.0488H21.8208V8C21.8208 3.58172 18.2391 0 13.8208 0H8ZM21.8208 15.0488H11.2867C10.4556 15.0488 9.7818 15.7226 9.7818 16.5537C9.7818 17.3848 10.4556 18.0586 11.2867 18.0586H21.8208V15.0488Z" fill="#D9D9D9"/>
<g filter="url(#filter0_b_32_244)">
<rect x="35.5825" y="18.4348" width="12.5825" height="2.99583" rx="1.49792" transform="rotate(-138 35.5825 18.4348)" fill="#D9D9D9"/>
</g>
<g filter="url(#filter1_b_32_244)">
<rect x="37.5942" y="16.4609" width="12.5825" height="2.99583" rx="1.49792" transform="rotate(134 37.5942 16.4609)" fill="#D9D9D9"/>
</g>
<defs>
<filter id="filter0_b_32_244" x="12.5496" y="-5.89326" width="38.7201" height="38.0106" filterUnits="userSpaceOnUse" color-interpolation-filters="sRGB">
<feFlood flood-opacity="0" result="BackgroundImageFix"/>
<feGaussianBlur in="BackgroundImageFix" stdDeviation="7.15"/>
<feComposite in2="SourceAlpha" operator="in" result="effect1_backgroundBlur_32_244"/>
<feBlend mode="normal" in="SourceGraphic" in2="effect1_backgroundBlur_32_244" result="shape"/>
</filter>
<filter id="filter1_b_32_244" x="13.0188" y="0.7" width="38.2553" height="38.4918" filterUnits="userSpaceOnUse" color-interpolation-filters="sRGB">
<feFlood flood-opacity="0" result="BackgroundImageFix"/>
<feGaussianBlur in="BackgroundImageFix" stdDeviation="7.15"/>
<feComposite in2="SourceAlpha" operator="in" result="effect1_backgroundBlur_32_244"/>
<feBlend mode="normal" in="SourceGraphic" in2="effect1_backgroundBlur_32_244" result="shape"/>
</filter>
</defs>
</svg>
